<?xml version="1.0" encoding="utf-8"?>
<!-- Generator: Adobe Illustrator 19.0.0, SVG Export Plug-In . SVG Version: 6.00 Build 0)  -->
<svg version="1.1" id="Layer_1" xmlns="http://www.w3.org/2000/svg" xmlns:xlink="http://www.w3.org/1999/xlink" x="0px" y="0px"
	 viewBox="0 0 26 26" style="enable-background:new 0 0 26 26;" xml:space="preserve">
<style type="text/css">
	.st0{fill:none;stroke:#004A97;stroke-width:3;stroke-miterlimit:10;}
	.st1{fill:#004A97;}
</style>
<polyline id="XMLID_85_" class="st0" points="8.2,11.1 13,15.7 17.8,11.1 "/>
<g id="XMLID_15_">
	<path id="XMLID_18_" class="st1" d="M13,4c5,0,9,4,9,9s-4,9-9,9s-9-4-9-9S8,4,13,4 M13,1C6.4,1,1,6.4,1,13c0,6.6,5.4,12,12,12
		c6.6,0,12-5.4,12-12C25,6.4,19.6,1,13,1L13,1z"/>
</g>
<polyline id="XMLID_412_" class="st0" points="8.2,11.1 13,15.7 17.8,11.1 "/>
<g id="XMLID_411_">
	<path id="XMLID_14_" class="st1" d="M13,4c5,0,9,4,9,9s-4,9-9,9s-9-4-9-9S8,4,13,4 M13,1C6.4,1,1,6.4,1,13c0,6.6,5.4,12,12,12
		c6.6,0,12-5.4,12-12C25,6.4,19.6,1,13,1L13,1z"/>
</g>
</svg>
