<?xml version="1.0" encoding="utf-8"?>
<!-- Generator: Adobe Illustrator 19.0.0, SVG Export Plug-In . SVG Version: 6.00 Build 0)  -->
<svg version="1.1" id="Layer_1" xmlns="http://www.w3.org/2000/svg" xmlns:xlink="http://www.w3.org/1999/xlink" x="0px" y="0px"
	 viewBox="0 0 52 52" style="enable-background:new 0 0 52 52;" xml:space="preserve">
<style type="text/css">
	.st0{fill:#162C53;}
	.st1{fill:#FFFFFF;}
</style>
<g id="XMLID_53_">
	<circle id="XMLID_67_" class="st0" cx="26" cy="26" r="25"/>
</g>
<path id="XMLID_105_" class="st1" d="M36,17.2H16c-0.7,0-1.3,0.6-1.3,1.3v15c0,0.7,0.6,1.3,1.3,1.3h20c0.7,0,1.3-0.6,1.3-1.3v-15
	C37.3,17.8,36.7,17.2,36,17.2z M33,19.7l-7,7l-7-7H33z M17.2,32.3V21.5l7.9,7.9c0.3,0.3,0.6,0.4,0.9,0.4s0.7-0.1,0.9-0.4l7.9-7.9
	v10.8H17.2z"/>
</svg>
