<?xml version="1.0" encoding="utf-8"?>
<!-- Generator: Adobe Illustrator 19.0.0, SVG Export Plug-In . SVG Version: 6.00 Build 0)  -->
<svg version="1.1" id="Layer_1" xmlns="http://www.w3.org/2000/svg" xmlns:xlink="http://www.w3.org/1999/xlink" x="0px" y="0px"
	 viewBox="0 0 52 52" style="enable-background:new 0 0 52 52;" xml:space="preserve">
<style type="text/css">
	.st0{fill:#5FA9DD;}
	.st1{fill:#FFFFFF;}
</style>
<g id="XMLID_54_">
	<circle id="XMLID_68_" class="st0" cx="26" cy="26.1" r="25"/>
</g>
<path id="XMLID_53_" class="st1" d="M38.4,19.4c-0.9,0.4-1.8,0.6-2.8,0.8c1-0.6,1.8-1.5,2.1-2.7c-0.9,0.6-2,1-3.1,1.2
	c-0.9-0.9-2.1-1.5-3.5-1.5c-2.7,0-4.8,2.2-4.8,4.8c0,0.4,0,0.7,0.1,1.1c-4-0.2-7.6-2.1-9.9-5c-0.4,0.7-0.7,1.5-0.7,2.4
	c0,1.7,0.9,3.2,2.1,4c-0.8,0-1.5-0.2-2.2-0.6c0,0,0,0,0,0.1c0,2.3,1.7,4.3,3.9,4.7c-0.4,0.1-0.8,0.2-1.3,0.2c-0.3,0-0.6,0-0.9-0.1
	c0.6,1.9,2.4,3.3,4.5,3.4c-1.7,1.3-3.7,2.1-6,2.1c-0.4,0-0.8,0-1.2-0.1c2.1,1.4,4.7,2.2,7.4,2.2c8.9,0,13.7-7.4,13.7-13.7
	c0-0.2,0-0.4,0-0.6C36.9,21.2,37.7,20.4,38.4,19.4z"/>
</svg>
