<?xml version="1.0" encoding="utf-8"?>
<!-- Generator: Adobe Illustrator 16.0.0, SVG Export Plug-In . SVG Version: 6.00 Build 0)  -->
<!DOCTYPE svg PUBLIC "-//W3C//DTD SVG 1.1//EN" "http://www.w3.org/Graphics/SVG/1.1/DTD/svg11.dtd">
<svg version="1.1" id="Layer_1" xmlns="http://www.w3.org/2000/svg" xmlns:xlink="http://www.w3.org/1999/xlink" x="0px" y="0px"
	 width="183.455px" height="61.963px" viewBox="0 0 183.455 61.963" enable-background="new 0 0 183.455 61.963"
	 xml:space="preserve">
<g>
	<defs>
		<rect id="SVGID_1_" width="183.455" height="61.963"/>
	</defs>
	<clipPath id="SVGID_2_">
		<use xlink:href="#SVGID_1_"  overflow="visible"/>
	</clipPath>
	<path clip-path="url(#SVGID_2_)" fill="#004A97" d="M81.009,29.565l-0.001-0.077c-0.026-0.363-0.094-0.95-0.17-1.581
		c-0.149-1.145-0.399-2.272-0.745-3.359c-2.609-8.231-9.593-13.543-17.794-13.543c-0.819,0-1.665,0.052-2.499,0.166
		C49.283,12.524,42.14,22.056,43.531,32.87c1.266,9.79,9.143,16.497,18.728,16.497c0.809,0,1.651-0.057,2.502-0.158
		c5.11-0.649,9.598-2.789,12.961-6.95c0.19-0.235,0.284-0.54,0.248-0.811c-0.031-0.241-0.171-0.471-0.425-0.654
		c-0.565-0.406-2.579-1.383-3.674-1.905c-0.322-0.161-0.582-0.286-0.727-0.357c-0.332-0.171-0.57-0.248-0.787-0.248
		c-0.266,0-0.517,0.136-0.764,0.435c-2.168,2.521-4.912,3.844-7.714,4.212c-0.557,0.068-1.096,0.104-1.62,0.104
		c-5.109,0-10.265-3.421-11.761-8.116l-0.037-0.123l0.109-0.053c0.266-0.132,2.656-1.245,6.199-1.245
		c0.44,0,0.887,0.018,1.324,0.057c1.016,0.08,2.038,0.212,3.114,0.349c1.986,0.263,4.047,0.534,6.451,0.534
		c1.482,0,2.939-0.106,4.426-0.313c5.847-1.127,8.168-2.768,8.185-2.782C81.095,30.807,81.064,30.364,81.009,29.565 M74.404,27.169
		c-0.965,0.313-2.283,0.578-3.922,0.783c-0.781,0.102-1.648,0.153-2.666,0.153c-1.707,0-3.557-0.136-5.348-0.276l-0.062-0.002
		c-1.658-0.125-3.229-0.243-4.734-0.243c-1.077,0-2.063,0.064-3.008,0.185c-2.815,0.349-5.033,1.233-5.033,1.233l0.023-0.229
		c0.545-5.643,5.287-10.461,11.025-11.223c0.53-0.062,1.075-0.097,1.62-0.097c5.406,0,10.648,4.098,12.207,9.542l0.039,0.141
		L74.404,27.169z"/>
	<path clip-path="url(#SVGID_2_)" fill="#004A97" d="M172.619,13.16c0-0.491-0.402-0.886-0.889-0.886h-4.841
		c-0.481,0-0.88,0.395-0.88,0.886v34.414c0,0.485,0.398,0.888,0.88,0.888h4.841c0.486,0,0.889-0.402,0.889-0.888V13.16z"/>
	<path clip-path="url(#SVGID_2_)" fill="#004A97" d="M169.314,0c-2.406,0-4.369,1.964-4.369,4.374c0,2.404,1.963,4.364,4.369,4.364
		c2.412,0,4.369-1.96,4.369-4.364C173.684,1.964,171.727,0,169.314,0"/>
	<path clip-path="url(#SVGID_2_)" fill="#004A97" d="M105.029,49.379c0.307,0.013,0.623,0.025,0.932,0.025
		c4.972,0,9.594-1.92,13.027-5.38c3.482-3.527,5.395-8.364,5.395-13.628c0-10.872-8.371-19.391-19.061-19.391
		c-8.697,0-16.041,5.728-18.285,14.248c-0.383,1.447-0.777,5.136-0.777,8.815V61.07c0,0.491,0.394,0.893,0.886,0.893h4.801
		c0.496,0,0.898-0.406,0.898-0.898l-0.004-17.012l0.252,0.245C95.451,46.589,99.824,49.135,105.029,49.379 M105.244,17.541
		c6.859,0,12.234,5.645,12.234,12.855c0,7.255-5.1,12.72-11.865,12.72c-3.416,0-6.582-1.226-8.898-3.444
		c-2.391-2.282-3.701-5.504-3.701-9.059C93.014,23.405,98.5,17.541,105.244,17.541"/>
	<path clip-path="url(#SVGID_2_)" fill="#004A97" d="M18.777,49.379c0.307,0.013,0.621,0.025,0.924,0.025
		c4.978,0,9.602-1.92,13.029-5.38c3.484-3.527,5.402-8.364,5.402-13.628c0-10.872-8.378-19.391-19.07-19.391
		c-8.695,0-16.045,5.728-18.285,14.248C0.388,26.7,0,30.389,0,34.068V61.07c0,0.491,0.398,0.893,0.879,0.893h4.814
		c0.494,0,0.897-0.406,0.897-0.898L6.582,44.053l0.242,0.245C9.183,46.589,13.556,49.135,18.777,49.379 M18.99,17.541
		c6.854,0,12.23,5.645,12.23,12.855c0,7.255-5.097,12.72-11.869,12.72c-3.424,0-6.576-1.226-8.89-3.444
		C8.066,37.39,6.75,34.168,6.75,30.613C6.75,23.405,12.24,17.541,18.99,17.541"/>
	<path clip-path="url(#SVGID_2_)" fill="#004A97" d="M129.008,43.351c4.18,3.825,8.746,6.011,14.674,6.011h0.188
		c10.232-0.066,14.805-5.659,14.805-11.169c0-7.622-7.191-9.705-9.396-10.167c-0.706-0.139-1.44-0.277-2.194-0.427
		c-1.781-0.343-3.631-0.696-5.311-1.16c-1.178-0.324-5.018-1.604-5.018-4.475c0-3.161,3.508-4.865,6.803-4.865
		c2.768,0,5.076,0.467,8.029,2.773c0.23,0.181,0.555,0.389,0.949,0.389c0.293,0,0.572-0.1,0.873-0.315
		c0.818-0.604,2.314-1.865,3.303-2.854c0.231-0.235,0.342-0.494,0.328-0.763c-0.023-0.419-0.334-0.762-0.494-0.895
		c-3.949-3.133-7.75-4.415-13.109-4.429h-0.039c-7.666,0-13.454,4.928-13.454,11.461c0,5.177,4.257,8.855,11.972,10.369l4.83,0.926
		c3.176,0.583,4.961,2.27,4.898,4.63c-0.057,2.302-2.879,4.685-7.516,4.685c-3.785,0-7.119-1.479-9.912-4.014l-0.041-0.039
		c-0.197-0.18-0.434-0.397-0.75-0.397c-0.223,0-0.457,0.104-0.711,0.301c-0.291,0.236-3.518,2.787-3.861,3.148
		c-0.158,0.169-0.232,0.348-0.229,0.536C128.633,42.908,128.83,43.187,129.008,43.351"/>
	<path clip-path="url(#SVGID_2_)" fill="#004A97" d="M179.486,41.349c2.211,0,3.969,1.802,3.969,4.014s-1.758,3.999-3.969,3.999
		c-2.207,0-3.955-1.787-3.955-3.999S177.279,41.349,179.486,41.349 M179.486,48.66c1.826,0,3.264-1.47,3.264-3.298
		c0-1.824-1.438-3.309-3.264-3.309c-1.822,0-3.264,1.484-3.264,3.309C176.223,47.19,177.664,48.66,179.486,48.66 M180.098,45.938
		c0.611-0.154,0.873-0.7,0.873-1.242c0-0.66-0.416-1.315-1.293-1.315h-1.553v3.997h0.785v-1.381h0.262l0.992,1.381h0.955
		L180.098,45.938z M179.678,44.151c0.334,0,0.521,0.26,0.521,0.545c0,0.27-0.187,0.528-0.542,0.528h-0.746v-1.073H179.678z"/>
</g>
</svg>
