<?xml version="1.0" encoding="utf-8"?>
<!-- Generator: Adobe Illustrator 19.0.0, SVG Export Plug-In . SVG Version: 6.00 Build 0)  -->
<svg version="1.1" id="Layer_1" xmlns="http://www.w3.org/2000/svg" xmlns:xlink="http://www.w3.org/1999/xlink" x="0px" y="0px"
	 viewBox="0 0 62 62" style="enable-background:new 0 0 62 62;" xml:space="preserve">
<style type="text/css">
	.st0{fill:#FF0042;}
	.st1{fill:#FFFFFF;}
</style>
<g id="XMLID_366_">
	<circle id="XMLID_46_" class="st0" cx="31" cy="31" r="30"/>
</g>
<g id="XMLID_60_">
	<g id="XMLID_59_">
		<path id="XMLID_61_" class="st1" d="M42,20.2H19.9c-3.6,0-3.3,3.9-3.3,3.9s0,4.2,0,8c0,4.4,3.5,13.8,14.4,13.8
			c12.1,0,14.4-11.3,14.4-13.9c0-1.3,0-5.2,0-8.7C45.4,19.8,42,20.2,42,20.2z M39.2,31c-2.2,2.3-4.6,4.4-6.9,6.6
			c-0.9,0.8-1.9,0.8-2.8-0.1c-2.3-2.1-4.5-4.3-6.7-6.4c-0.9-0.8-0.9-2-0.1-2.9c0.8-0.9,2-0.9,2.9,0c1.4,1.4,2.9,2.7,4.3,4.1
			c0.3,0.3,0.7,0.6,1,1l0,0c1.7-1.7,3.4-3.3,5.1-4.9c0.6-0.5,1.2-0.9,2-0.7C39.7,28,40.4,29.8,39.2,31z"/>
	</g>
</g>
</svg>
